<svg width="38" height="38" viewBox="0 0 38 38" fill="none" xmlns="http://www.w3.org/2000/svg">
<path d="M31.9201 19C31.9201 26.144 26.1441 31.92 19.0001 31.92C11.8561 31.92 6.08008 26.144 6.08008 19C6.08008 11.856 11.8561 6.08005 19.0001 6.08004C26.1441 6.08004 31.9201 11.856 31.9201 19ZM7.60008 19C7.60008 25.308 12.6921 30.4 19.0001 30.4C25.3081 30.4 30.4001 25.308 30.4001 19C30.4001 12.692 25.3081 7.60005 19.0001 7.60005C12.6921 7.60005 7.60008 12.692 7.60008 19Z" fill="#00417E"/>
<path d="M26.144 18.9999L18.772 26.3719L17.708 25.3079L24.016 18.9999L17.708 12.6919L18.772 11.6279L26.144 18.9999Z" fill="#00417E"/>
<path d="M12.1599 19.76L12.1599 18.24L25.0799 18.24L25.0799 19.76L12.1599 19.76Z" fill="#00417E"/>
</svg>
