<svg width="197" height="93" viewBox="0 0 197 93" fill="none" xmlns="http://www.w3.org/2000/svg">
<g clip-path="url(#clip0_10_206)">
<path d="M155.5 17.25C169.445 17.25 180.75 28.5548 180.75 42.5C180.75 56.4452 169.445 67.75 155.5 67.75C141.555 67.75 130.25 56.4452 130.25 42.5C130.25 28.5548 141.555 17.25 155.5 17.25Z" stroke="#00417E" stroke-width="0.5"/>
<path d="M155.5 9.4834C155.64 11.0347 155.818 12.7005 156.047 14.418C156.563 18.2833 157.334 22.4261 158.49 26.1377C159.643 29.8385 161.195 33.1648 163.302 35.3477C165.411 37.5327 168.598 39.1139 172.134 40.2676C175.679 41.4242 179.627 42.1671 183.305 42.6445C184.391 42.7855 185.455 42.9013 186.479 43C185.455 43.0987 184.391 43.2145 183.305 43.3555C179.627 43.8329 175.679 44.5758 172.134 45.7324C168.598 46.8861 165.411 48.4673 163.302 50.6523C161.195 52.8352 159.643 56.1615 158.49 59.8623C157.334 63.5739 156.563 67.7167 156.047 71.582C155.818 73.2992 155.64 74.9646 155.5 76.5156C155.36 74.9646 155.182 73.2992 154.953 71.582C154.437 67.7167 153.666 63.5739 152.51 59.8623C151.357 56.1615 149.805 52.8352 147.698 50.6523C145.589 48.4673 142.402 46.8861 138.866 45.7324C135.321 44.5758 131.373 43.8329 127.695 43.3555C126.609 43.2144 125.544 43.0987 124.52 43C125.544 42.9013 126.609 42.7856 127.695 42.6445C131.373 42.1671 135.321 41.4242 138.866 40.2676C142.402 39.1139 145.589 37.5327 147.698 35.3477C149.805 33.1648 151.357 29.8385 152.51 26.1377C153.666 22.4261 154.437 18.2833 154.953 14.418C155.182 12.7005 155.36 11.0347 155.5 9.4834Z" fill="white" stroke="#00417E"/>
<path d="M7.41 63V45.06H0.15V41.85H18.51V45.06H11.25V63H7.41ZM19.2373 56.46V53.46H28.1773V56.46H19.2373ZM32.5151 63V41.85H41.6951C44.0151 41.85 45.8051 42.41 47.0651 43.53C48.3251 44.63 48.9551 46.18 48.9551 48.18C48.9551 49.48 48.6651 50.6 48.0851 51.54C47.5251 52.48 46.7051 53.2 45.6251 53.7C44.5451 54.2 43.2351 54.45 41.6951 54.45L41.9651 54H42.9551C43.7751 54 44.4851 54.2 45.0851 54.6C45.7051 55 46.2451 55.63 46.7051 56.49L50.2451 63H46.0151L42.3551 56.25C42.1151 55.81 41.8451 55.47 41.5451 55.23C41.2451 54.97 40.9051 54.79 40.5251 54.69C40.1451 54.59 39.7051 54.54 39.2051 54.54H36.3551V63H32.5151ZM36.3551 51.69H41.0351C42.4151 51.69 43.4551 51.41 44.1551 50.85C44.8751 50.27 45.2351 49.41 45.2351 48.27C45.2351 47.15 44.8751 46.31 44.1551 45.75C43.4551 45.17 42.4151 44.88 41.0351 44.88H36.3551V51.69ZM59.5706 63.3C57.9106 63.3 56.4806 62.99 55.2806 62.37C54.0806 61.75 53.1506 60.87 52.4906 59.73C51.8506 58.59 51.5306 57.24 51.5306 55.68C51.5306 54.16 51.8406 52.83 52.4606 51.69C53.1006 50.55 53.9706 49.66 55.0706 49.02C56.1906 48.36 57.4606 48.03 58.8806 48.03C60.2806 48.03 61.4806 48.33 62.4806 48.93C63.4806 49.53 64.2506 50.38 64.7906 51.48C65.3506 52.58 65.6306 53.89 65.6306 55.41V56.52H54.5606V54.36H62.9906L62.5106 54.81C62.5106 53.45 62.2106 52.41 61.6106 51.69C61.0106 50.95 60.1506 50.58 59.0306 50.58C58.1906 50.58 57.4706 50.78 56.8706 51.18C56.2906 51.56 55.8406 52.11 55.5206 52.83C55.2206 53.53 55.0706 54.37 55.0706 55.35V55.56C55.0706 56.66 55.2406 57.57 55.5806 58.29C55.9206 59.01 56.4306 59.55 57.1106 59.91C57.7906 60.27 58.6306 60.45 59.6306 60.45C60.4506 60.45 61.2706 60.33 62.0906 60.09C62.9106 59.83 63.6606 59.43 64.3406 58.89L65.3906 61.41C64.6906 61.99 63.8106 62.45 62.7506 62.79C61.6906 63.13 60.6306 63.3 59.5706 63.3ZM75.4404 68.7C74.0804 68.7 72.8004 68.54 71.6004 68.22C70.4204 67.92 69.3804 67.45 68.4804 66.81L69.5604 64.2C70.1204 64.56 70.7104 64.86 71.3304 65.1C71.9504 65.36 72.5804 65.55 73.2204 65.67C73.8604 65.79 74.5004 65.85 75.1404 65.85C76.4804 65.85 77.4804 65.52 78.1404 64.86C78.8204 64.22 79.1604 63.26 79.1604 61.98V59.28H79.4304C79.1304 60.3 78.5004 61.12 77.5404 61.74C76.6004 62.34 75.5304 62.64 74.3304 62.64C73.0104 62.64 71.8604 62.34 70.8804 61.74C69.9004 61.12 69.1404 60.26 68.6004 59.16C68.0604 58.06 67.7904 56.78 67.7904 55.32C67.7904 53.86 68.0604 52.59 68.6004 51.51C69.1404 50.41 69.9004 49.56 70.8804 48.96C71.8604 48.34 73.0104 48.03 74.3304 48.03C75.5704 48.03 76.6504 48.34 77.5704 48.96C78.5104 49.56 79.1204 50.36 79.4004 51.36H79.1604V48.33H82.8204V61.53C82.8204 63.11 82.5404 64.43 81.9804 65.49C81.4204 66.57 80.5904 67.37 79.4904 67.89C78.3904 68.43 77.0404 68.7 75.4404 68.7ZM75.3504 59.79C76.5104 59.79 77.4304 59.39 78.1104 58.59C78.7904 57.79 79.1304 56.7 79.1304 55.32C79.1304 53.94 78.7904 52.86 78.1104 52.08C77.4304 51.28 76.5104 50.88 75.3504 50.88C74.1904 50.88 73.2704 51.28 72.5904 52.08C71.9104 52.86 71.5704 53.94 71.5704 55.32C71.5704 56.7 71.9104 57.79 72.5904 58.59C73.2704 59.39 74.1904 59.79 75.3504 59.79ZM92.0159 63.3C90.7959 63.3 89.7859 63.08 88.9859 62.64C88.1859 62.18 87.5859 61.5 87.1859 60.6C86.8059 59.7 86.6159 58.58 86.6159 57.24V48.33H90.3659V57.3C90.3659 57.98 90.4559 58.55 90.6359 59.01C90.8359 59.47 91.1259 59.81 91.5059 60.03C91.9059 60.25 92.4059 60.36 93.0059 60.36C93.6859 60.36 94.2759 60.21 94.7759 59.91C95.2959 59.59 95.6959 59.15 95.9759 58.59C96.2759 58.01 96.4259 57.34 96.4259 56.58V48.33H100.176V63H96.5159V59.94H96.9359C96.5159 61.02 95.8759 61.85 95.0159 62.43C94.1759 63.01 93.1759 63.3 92.0159 63.3ZM109.179 63.3C107.439 63.3 106.149 62.83 105.309 61.89C104.489 60.93 104.079 59.53 104.079 57.69V41.85H107.829V57.51C107.829 58.09 107.909 58.59 108.069 59.01C108.249 59.41 108.509 59.71 108.849 59.91C109.189 60.11 109.609 60.21 110.109 60.21C110.329 60.21 110.549 60.2 110.769 60.18C110.989 60.16 111.199 60.12 111.399 60.06L111.339 63.03C110.979 63.11 110.619 63.17 110.259 63.21C109.919 63.27 109.559 63.3 109.179 63.3ZM118.969 63.3C117.749 63.3 116.739 63.08 115.939 62.64C115.139 62.18 114.539 61.5 114.139 60.6C113.759 59.7 113.569 58.58 113.569 57.24V48.33H117.319V57.3C117.319 57.98 117.409 58.55 117.589 59.01C117.789 59.47 118.079 59.81 118.459 60.03C118.859 60.25 119.359 60.36 119.959 60.36C120.639 60.36 121.229 60.21 121.729 59.91C122.249 59.59 122.649 59.15 122.929 58.59C123.229 58.01 123.379 57.34 123.379 56.58V48.33H127.129V63H123.469V59.94H123.889C123.469 61.02 122.829 61.85 121.969 62.43C121.129 63.01 120.129 63.3 118.969 63.3ZM136.402 63.3C135.582 63.3 134.782 63.23 134.002 63.09C133.242 62.95 132.542 62.76 131.902 62.52C131.262 62.26 130.702 61.94 130.222 61.56L131.182 59.1C131.682 59.42 132.222 59.7 132.802 59.94C133.382 60.18 133.982 60.36 134.602 60.48C135.222 60.6 135.832 60.66 136.432 60.66C137.392 60.66 138.102 60.5 138.562 60.18C139.042 59.84 139.282 59.4 139.282 58.86C139.282 58.4 139.122 58.05 138.802 57.81C138.502 57.55 138.042 57.36 137.422 57.24L134.422 56.67C133.182 56.43 132.232 55.98 131.572 55.32C130.932 54.64 130.612 53.77 130.612 52.71C130.612 51.75 130.872 50.92 131.392 50.22C131.932 49.52 132.672 48.98 133.612 48.6C134.552 48.22 135.632 48.03 136.852 48.03C137.552 48.03 138.232 48.1 138.892 48.24C139.552 48.36 140.172 48.55 140.752 48.81C141.352 49.05 141.872 49.37 142.312 49.77L141.292 52.23C140.912 51.91 140.472 51.64 139.972 51.42C139.472 51.18 138.952 51 138.412 50.88C137.892 50.74 137.382 50.67 136.882 50.67C135.902 50.67 135.172 50.84 134.692 51.18C134.232 51.52 134.002 51.97 134.002 52.53C134.002 52.95 134.142 53.3 134.422 53.58C134.702 53.86 135.132 54.05 135.712 54.15L138.712 54.72C140.012 54.96 140.992 55.4 141.652 56.04C142.332 56.68 142.672 57.54 142.672 58.62C142.672 59.6 142.412 60.44 141.892 61.14C141.372 61.84 140.642 62.38 139.702 62.76C138.762 63.12 137.662 63.3 136.402 63.3Z" fill="#00417E"/>
<path d="M12.8814 71.3485C13.9826 71.4384 16.0955 71.1828 17.2257 71.0474C17.247 71.045 17.2682 71.0425 17.2895 71.04C17.5631 71.0074 17.8351 70.9822 18.1363 70.9542C18.8363 70.889 19.8384 70.7953 21.8658 70.5155C22.4862 70.4687 23.0416 70.4248 23.645 70.3754C30.0569 69.8481 36.4948 69.1921 42.8885 68.5458C42.9703 68.5404 43.0535 68.5349 43.1376 68.5293C44.7439 68.4224 46.7718 68.2872 47.9976 68.1385C49.5854 67.9476 50.6771 67.8017 51.554 67.6812C55.7184 67.2755 59.8859 66.8906 64.0623 66.5476C64.9952 66.4709 65.9266 66.399 66.8561 66.3318C68.45 66.2166 70.054 66.1148 71.6492 66.0275C73.1304 65.9466 74.5863 65.8772 76.0709 65.8159C76.9318 65.8037 77.746 65.8004 78.5002 65.7982C79.5712 65.7948 80.5185 65.794 81.2973 65.776C83.1867 65.7316 85.3069 65.616 86.9071 65.5384C87.1667 65.5257 87.4114 65.5138 87.6373 65.5033C88.8848 65.4852 90.1684 65.471 91.4201 65.461C91.5037 65.4497 91.5879 65.438 91.6734 65.4261C92.7444 65.2776 94.0752 65.2551 96.157 65.2298C97.0756 65.219 98.1026 65.2082 99.3543 65.1895C100.158 65.1776 100.565 65.1286 100.899 65.0889C100.997 65.0772 101.088 65.0663 101.181 65.0575C101.5 65.0273 101.83 65.0573 102.237 65.0926C102.76 65.1386 103.385 65.1928 104.199 65.1415C106.828 64.9815 107.952 65.1011 108.842 65.1844C109.098 65.2092 109.33 65.2316 109.566 65.2448C110.324 65.2871 111.433 65.2587 112.262 65.2181C112.909 65.1853 114.237 65.2418 115.228 65.3052C115.604 65.3292 116.095 65.3369 116.712 65.3478C117.344 65.3589 118.049 65.3721 118.814 65.407C120.778 65.4965 121.795 65.5449 122.626 65.5838C122.86 65.5949 123.076 65.6052 123.29 65.6156C124.004 65.6498 124.859 65.6855 125.725 65.7233C126.799 65.7698 127.826 65.8172 128.649 65.8649C130.744 65.9122 132.838 65.9666 134.93 66.0368C136.006 66.0726 137.024 66.0513 137.807 65.9793C138.573 65.9057 139.023 65.7869 138.996 65.6304C139.045 65.479 138.613 65.2995 137.859 65.1337C137.088 64.967 136.075 64.8297 134.999 64.7518C132.833 64.5955 130.66 64.4518 128.494 64.3236C125.851 64.1675 123.211 64.0343 120.559 63.9359C118.712 63.8673 116.842 63.8105 115.012 63.7662C114.822 63.7616 114.631 63.7572 114.439 63.7528C112.866 63.6596 111.333 63.5754 110.236 63.5338C109.344 63.4996 108.68 63.5134 108.108 63.5262C107.709 63.535 107.382 63.5435 107.035 63.5351C106.85 63.5306 106.596 63.5229 106.289 63.5139C105.018 63.4768 102.901 63.4178 100.956 63.4554C100.103 63.4719 99.076 63.5133 98.1315 63.5564C96.7791 63.6175 95.4718 63.6831 94.8449 63.6653C93.7275 63.6336 92.3995 63.6694 91.2728 63.7052C90.1859 63.7392 89.2204 63.7733 88.6753 63.7388C88.0297 63.6975 87.4783 63.7247 86.6539 63.768C86.0827 63.798 85.3733 63.8359 84.4289 63.8651C83.3329 63.8991 82.5513 63.9536 81.887 64.001C80.9634 64.0675 80.2659 64.1201 79.2171 64.0898C78.0449 64.0563 76.8478 64.0503 75.8888 64.106C75.4549 64.1312 74.9501 64.147 74.4376 64.1637C73.7553 64.1859 73.0354 64.2107 72.3779 64.2637C71.8368 64.3074 71.3868 64.3814 70.9954 64.4473C70.873 64.4679 70.7555 64.4877 70.6416 64.5056C70.2113 64.5247 69.7804 64.5441 69.3489 64.5634C69.2786 64.5579 69.2046 64.5517 69.1274 64.5453C68.7398 64.5132 68.2627 64.4738 67.6733 64.4721C66.7457 64.4693 65.9355 64.5435 65.0788 64.6253C64.7137 64.6601 64.3402 64.6963 63.9456 64.7283C63.6171 64.7549 63.2753 64.7783 62.9134 64.7951C62.3679 64.8205 61.7491 64.8333 61.1399 64.8456C60.2456 64.8632 59.3225 64.8826 58.7036 64.9413C58.4703 64.9634 58.2721 65.0123 58.0765 65.061C58.0756 65.0613 58.0748 65.0615 58.0739 65.0618C58.0606 65.0651 58.0473 65.0684 58.034 65.0717C56.5411 65.1322 54.9742 65.1945 53.4811 65.2498C53.3524 65.2477 53.214 65.2463 53.0808 65.2446C52.4262 65.237 51.7962 65.2288 51.3851 65.1879C50.9386 65.1436 49.8365 65.167 48.6493 65.1928C47.875 65.2095 47.1001 65.2248 46.4421 65.2231C46.0573 65.222 45.6984 65.2842 45.3312 65.3486C44.9887 65.4086 44.6386 65.4705 44.2545 65.4833C44.0622 65.4896 43.8541 65.4848 43.6329 65.4794C43.4337 65.475 43.2206 65.4704 43.0004 65.4729C42.7955 65.4753 42.3426 65.525 41.7689 65.5886C41.4143 65.6279 41.0135 65.6725 40.5958 65.7146C39.4477 65.7576 38.3403 65.7989 37.2101 65.8434C36.9697 65.8201 36.7611 65.7833 36.5946 65.7299C36.4751 65.6916 36.3726 65.6432 36.2674 65.5938C36.1243 65.5264 35.9765 65.4567 35.7766 65.4057C35.6205 65.3658 35.4395 65.3567 35.3206 65.3839C35.2652 65.3966 35.2235 65.4169 35.1856 65.4353C35.1422 65.4564 35.1035 65.4752 35.0549 65.4775C35.0198 65.4792 34.9825 65.4682 34.9366 65.455C34.8624 65.4338 34.7715 65.4062 34.6241 65.4136C34.0796 65.4409 33.4684 65.4871 32.8775 65.532C32.2254 65.5817 31.5762 65.6313 31.0538 65.6521C30.4651 65.6756 29.6775 65.7717 28.8392 65.8723C28.2589 65.9422 27.6869 66.0118 27.201 66.0556C26.7358 66.0977 26.2034 66.1022 25.7159 66.104C25.122 66.1069 24.581 66.107 24.0941 66.1821C23.9961 66.1973 23.8778 66.2605 23.7303 66.3399C23.6257 66.3962 23.5057 66.4606 23.3689 66.5217C22.7509 66.5605 22.1786 66.5984 21.5444 66.6428C21.5221 66.6366 21.4991 66.6302 21.4761 66.6236C21.4757 66.6234 21.4753 66.6233 21.475 66.6231C20.9472 66.476 20.2782 66.2675 19.3066 66.4765C19.0612 66.5296 18.9119 66.6091 18.7775 66.6807C18.6458 66.751 18.5284 66.814 18.3528 66.8369C18.152 66.8629 17.9207 66.8394 17.6555 66.8146C17.2755 66.7804 16.8572 66.7411 16.4548 66.8278C16.4273 66.8337 16.3978 66.8402 16.3671 66.8467C16.0766 66.9088 15.6513 67.0003 15.2096 67.1595C13.9137 67.2787 12.6366 67.4036 11.3177 67.5372C9.14781 67.7576 7.02716 67.9893 4.83969 68.2317C3.79721 68.3484 2.80903 68.6062 2.08243 68.9628C1.36054 69.3193 0.976199 69.7417 1.01156 70.1442C1.04081 70.5471 1.48602 70.9023 2.2533 71.141C3.02533 71.3791 4.03947 71.4799 5.08602 71.4346C6.81378 71.3584 8.53067 71.2832 10.2446 71.2025C10.3361 71.2029 10.4286 71.2029 10.5213 71.2024C11.2032 71.1996 11.8027 71.2576 12.4582 71.3106C12.5977 71.3236 12.7388 71.3365 12.8814 71.3485Z" fill="#00417E"/>
</g>
<defs>
<clipPath id="clip0_10_206">
<rect width="197" height="93" fill="white"/>
</clipPath>
</defs>
</svg>
